# xmcd CD database file
#
# Track frame offsets:
#       150
#       19149
#       46270
#       63347
#       86712
#       118634
#       145097
#       162587
#       188096
#       208007
#
# Disc length: 3140 seconds
#
# Revision: 0
# Processed by: cddbd v1.5.2PL0 Copyright (c) Steve Scherf et al.
# Submitted via: jack 3.1.1
#
DISCID=890c420a
DTITLE=Bal o'Gadjo - Danses d'ici...
DYEAR=2010
DGENRE=Celtic
TTITLE0=Sarabandas (Polka)
TTITLE1=Nuit Calme (Valse à 8 tps)
TTITLE2=Scotswing (Scottish)
TTITLE3=Mazurka des dragons (Mazurka)
TTITLE4=Les fous du bateau (Cercle Circassien)
TTITLE5=Et pourtant (Valse)
TTITLE6=Réveil Agité (Chapelloise)
TTITLE7=Rondomino (Rondeau)
TTITLE8=Petits secrets des garrigues (Fandago - Arin Arin)
TTITLE9=Behind the wall (Mazurka)
EXTD=Year: 2010
EXTT0=
EXTT1=
EXTT2=
EXTT3=
EXTT4=
EXTT5=
EXTT6=
EXTT7=
EXTT8=
EXTT9=
PLAYORDER=
